# xmcd
#
# Track frame offsets:
#	150
#	8822
#	20857
#	30200
#	42207
#	53327
#	74875
#	88462
#	103427
#	115550
#	131752
#	142042
#	151250
#	166205
#	189745
#	201197
#	219337
#	237747
#	254020
#	263330
#	280067
#	290425
#
# Disc length: 4003 seconds
#
# Revision: 3
# Processed by: cddbd v1.5.2PL0 Copyright (c) Steve Scherf et al.
# Submitted via: EasyCDDAExtractor 10.0.2.1
#
DISCID=4a0fa116
DTITLE=Waylon Jennings - Waylon Live (The Extended Edition) - Disc 2
DYEAR=2003
DGENRE=Country
TTITLE0=Ladies Love Outlaws
TTITLE1=Big Ball In Cowtown
TTITLE2=Just To Satisfy You
TTITLE3=Anita You're Dreaming
TTITLE4=Big, Big Love
TTITLE5=Me And Bobby McGee
TTITLE6=If You Could Touch Her At All
TTITLE7=Bob Wills Is Still The King
TTITLE8=Look Into My Teardrops
TTITLE9=Long Way From Home
TTITLE10=The Taker
TTITLE11=Mississippi Woman
TTITLE12=Mona
TTITLE13=Never Been To Spain
TTITLE14=Only Daddy That'll Walk The Line
TTITLE15=Freedom To Stay
TTITLE16=Lovin' Her Was Easier (Than Anything I'll Ever Do Again)
TTITLE17=Pick Up The Tempo
TTITLE18=Ain't No God In Mexico
TTITLE19=House Of The Rising Sun
TTITLE20=Band Intros
TTITLE21=You Can Have Her
EXTD=RCA Nashville
EXTT0=
EXTT1=
EXTT2=
EXTT3=
EXTT4=
EXTT5=
EXTT6=
EXTT7=
EXTT8=
EXTT9=
EXTT10=
EXTT11=
EXTT12=
EXTT13=
EXTT14=
EXTT15=
EXTT16=
EXTT17=
EXTT18=
EXTT19=
EXTT20=
EXTT21=
PLAYORDER=
